<svg xmlns="http://www.w3.org/2000/svg" width="52" height="52" viewBox="0 0 52 52"><g transform="translate(-275.5 -938.182)"><circle cx="26" cy="26" r="26" transform="translate(275.5 938.182)" fill="#929292"/><path d="M15.915,9.991a8.16,8.16,0,1,0,8.16,8.16A8.147,8.147,0,0,0,15.915,9.991Zm0,13.464a5.3,5.3,0,1,1,5.3-5.3,5.314,5.314,0,0,1-5.3,5.3Zm10.4-13.8a1.9,1.9,0,1,1-1.9-1.9A1.9,1.9,0,0,1,26.311,9.657Zm5.4,1.932A9.418,9.418,0,0,0,29.145,4.92,9.48,9.48,0,0,0,22.476,2.35c-2.628-.149-10.5-.149-13.131,0A9.467,9.467,0,0,0,2.677,4.913,9.449,9.449,0,0,0,.107,11.582c-.149,2.628-.149,10.5,0,13.131a9.418,9.418,0,0,0,2.571,6.668,9.492,9.492,0,0,0,6.668,2.571c2.628.149,10.5.149,13.131,0a9.418,9.418,0,0,0,6.668-2.571,9.48,9.48,0,0,0,2.571-6.668c.149-2.628.149-10.5,0-13.124ZM28.321,27.532A5.371,5.371,0,0,1,25.3,30.557c-2.095.831-7.066.639-9.381.639s-7.293.185-9.381-.639a5.371,5.371,0,0,1-3.025-3.025c-.831-2.095-.639-7.066-.639-9.381s-.185-7.293.639-9.381A5.371,5.371,0,0,1,6.533,5.744C8.628,4.913,13.6,5.1,15.915,5.1s7.293-.185,9.381.639a5.371,5.371,0,0,1,3.025,3.025c.831,2.095.639,7.066.639,9.381S29.152,25.444,28.321,27.532Z" transform="translate(285.589 946.012)" fill="#fff"/></g></svg>