<svg xmlns="http://www.w3.org/2000/svg" width="278.71" height="32" viewBox="0 0 278.71 32"><path d="M-960.08,468.167a10.214,10.214,0,0,1,2.3,2.222v-11.45h3.662v31.2h-3.429v-3.153a8.23,8.23,0,0,1-3.142,3.026,8.961,8.961,0,0,1-4.154.931,8.4,8.4,0,0,1-6.535-3.185,12.484,12.484,0,0,1-2.762-8.476,14.671,14.671,0,0,1,2.519-8.582,8.238,8.238,0,0,1,7.2-3.63A8.007,8.007,0,0,1-960.08,468.167Zm-8.5,16.994a5.379,5.379,0,0,0,4.928,2.455,5.181,5.181,0,0,0,4.327-2.275,10.785,10.785,0,0,0,1.695-6.529q0-4.3-1.748-6.359a5.44,5.44,0,0,0-4.317-2.064,5.689,5.689,0,0,0-4.643,2.2q-1.779,2.2-1.779,6.476A11.286,11.286,0,0,0-968.584,485.161Z" transform="translate(974.142 -458.939)" fill="#212121"/><path d="M-923.255,459.148h3.873v4.317h-3.873Zm0,8.529h3.873v22.56h-3.873Z" transform="translate(948.969 -459.042)" fill="#212121"/><path d="M-904.2,475.32h3.767v3.217a12.658,12.658,0,0,1,2.455-2.434,7.386,7.386,0,0,1,4.275-1.291,6.728,6.728,0,0,1,4.36,1.334,6.974,6.974,0,0,1,1.693,2.243,8.236,8.236,0,0,1,2.984-2.7,8.325,8.325,0,0,1,3.852-.878q4.572,0,6.222,3.3a10.788,10.788,0,0,1,.889,4.783v15.09h-3.958V482.241a3.669,3.669,0,0,0-1.132-3.111,4.485,4.485,0,0,0-2.762-.846,5.481,5.481,0,0,0-3.862,1.5q-1.619,1.5-1.619,5.016v13.185h-3.873V483.193a7.691,7.691,0,0,0-.55-3.365,3.356,3.356,0,0,0-3.238-1.587,5.589,5.589,0,0,0-3.926,1.672q-1.767,1.672-1.767,6.053v12.021h-3.81Z" transform="translate(939.542 -466.791)" fill="#212121"/><path d="M-820.011,475.944a8.593,8.593,0,0,1,3.428,2.931,10.148,10.148,0,0,1,1.515,4,26.34,26.34,0,0,1,.336,5h-16.487a9.79,9.79,0,0,0,1.617,5.549,5.39,5.39,0,0,0,4.682,2.091,6.018,6.018,0,0,0,4.725-1.977,6.743,6.743,0,0,0,1.4-2.658h3.746a7.894,7.894,0,0,1-.984,2.783,10.013,10.013,0,0,1-1.865,2.508,8.791,8.791,0,0,1-4.264,2.286,12.876,12.876,0,0,1-3.088.339,9.459,9.459,0,0,1-7.13-3.079q-2.923-3.08-2.923-8.624a13.08,13.08,0,0,1,2.945-8.868,9.689,9.689,0,0,1,7.7-3.407A10.232,10.232,0,0,1-820.011,475.944Zm1.364,8.9a9.93,9.93,0,0,0-1.071-3.958,5.474,5.474,0,0,0-5.183-2.751,5.725,5.725,0,0,0-4.366,1.894,7.19,7.19,0,0,0-1.868,4.815Z" transform="translate(905.461 -466.791)" fill="#212121"/><path d="M-785.044,475.32h3.619v3.217a10.154,10.154,0,0,1,3.407-2.857,9.085,9.085,0,0,1,4-.868q4.825,0,6.518,3.365a11.945,11.945,0,0,1,.931,5.27v14.54h-3.873V483.7a7.737,7.737,0,0,0-.614-3.344,3.721,3.721,0,0,0-3.682-2.116,7.5,7.5,0,0,0-2.222.275,5.724,5.724,0,0,0-2.751,1.862,5.617,5.617,0,0,0-1.238,2.317,15.608,15.608,0,0,0-.285,3.418v11.873h-3.81Z" transform="translate(880.599 -466.791)" fill="#212121"/><path d="M-726.461,468.167a10.216,10.216,0,0,1,2.3,2.222v-11.45h3.661v31.2h-3.428v-3.153a8.226,8.226,0,0,1-3.142,3.026,8.959,8.959,0,0,1-4.153.931,8.4,8.4,0,0,1-6.536-3.185,12.487,12.487,0,0,1-2.762-8.476A14.671,14.671,0,0,1-738,470.7a8.238,8.238,0,0,1,7.2-3.63A8.009,8.009,0,0,1-726.461,468.167Zm-8.5,16.994a5.378,5.378,0,0,0,4.928,2.455,5.18,5.18,0,0,0,4.326-2.275,10.785,10.785,0,0,0,1.7-6.529q0-4.3-1.748-6.359a5.44,5.44,0,0,0-4.316-2.064,5.688,5.688,0,0,0-4.643,2.2q-1.779,2.2-1.779,6.476A11.28,11.28,0,0,0-734.965,485.161Z" transform="translate(858.575 -458.939)" fill="#212121"/><g transform="translate(141.255 6.539)"><path d="M-694.607,488.564l7.148-.448a5.453,5.453,0,0,0,.945,2.653,3.973,3.973,0,0,0,3.317,1.476,3.675,3.675,0,0,0,2.48-.754,2.262,2.262,0,0,0,.871-1.75,2.232,2.232,0,0,0-.829-1.692,9.61,9.61,0,0,0-3.848-1.409q-4.942-1.111-7.048-2.952a5.937,5.937,0,0,1-2.123-4.694,6.376,6.376,0,0,1,1.086-3.541,7.211,7.211,0,0,1,3.267-2.621,15.255,15.255,0,0,1,5.979-.954q4.66,0,7.106,1.733a7.481,7.481,0,0,1,2.911,5.515l-7.081.414a3.807,3.807,0,0,0-1.186-2.388,3.81,3.81,0,0,0-2.5-.746,3.011,3.011,0,0,0-1.974.556,1.7,1.7,0,0,0-.664,1.352,1.352,1.352,0,0,0,.548,1.044,6.149,6.149,0,0,0,2.52.9,31.525,31.525,0,0,1,7.057,2.148,7.418,7.418,0,0,1,3.1,2.695,6.835,6.835,0,0,1,.97,3.6,7.708,7.708,0,0,1-1.294,4.312A8.1,8.1,0,0,1-677.458,496a14.616,14.616,0,0,1-5.855,1.02q-6.2,0-8.591-2.388A9.416,9.416,0,0,1-694.607,488.564Z" transform="translate(694.607 -471.879)"/><path d="M-628.147,486.656l6.584,1.99a12.148,12.148,0,0,1-2.09,4.627,9.069,9.069,0,0,1-3.541,2.8,13.237,13.237,0,0,1-5.382.945,15.633,15.633,0,0,1-6.477-1.152,10.269,10.269,0,0,1-4.337-4.052,13.732,13.732,0,0,1-1.825-7.426q0-6.033,3.209-9.273t9.08-3.241a12.334,12.334,0,0,1,7.223,1.857,10.917,10.917,0,0,1,3.906,5.705l-6.634,1.476a5.7,5.7,0,0,0-.73-1.625,4.326,4.326,0,0,0-1.543-1.327,4.433,4.433,0,0,0-2.039-.464,4.412,4.412,0,0,0-3.914,2.055,8.721,8.721,0,0,0-1.028,4.787q0,4.042,1.228,5.541a4.206,4.206,0,0,0,3.449,1.5,4.188,4.188,0,0,0,3.259-1.211A7.489,7.489,0,0,0-628.147,486.656Z" transform="translate(670.173 -471.879)"/><path d="M-578.629,493h-8.53l-1.185,4.014h-7.671l9.139-24.313h8.195l9.136,24.313h-7.867Zm-1.559-5.257-2.683-8.74-2.656,8.74Z" transform="translate(645.836 -472.285)"/><path d="M-526.345,493h-8.53l-1.185,4.014h-7.671l9.138-24.313h8.195l9.136,24.313h-7.867Zm-1.559-5.257-2.683-8.74-2.655,8.74Z" transform="translate(619.972 -472.285)"/><path d="M-489.216,488.564l7.148-.448a5.458,5.458,0,0,0,.945,2.653,3.973,3.973,0,0,0,3.317,1.476,3.675,3.675,0,0,0,2.48-.754,2.263,2.263,0,0,0,.871-1.75,2.232,2.232,0,0,0-.829-1.692,9.609,9.609,0,0,0-3.848-1.409q-4.942-1.111-7.048-2.952a5.937,5.937,0,0,1-2.123-4.694,6.375,6.375,0,0,1,1.086-3.541,7.209,7.209,0,0,1,3.267-2.621,15.255,15.255,0,0,1,5.979-.954q4.66,0,7.107,1.733a7.484,7.484,0,0,1,2.911,5.515l-7.082.414a3.806,3.806,0,0,0-1.186-2.388,3.81,3.81,0,0,0-2.5-.746,3.012,3.012,0,0,0-1.974.556,1.7,1.7,0,0,0-.663,1.352,1.353,1.353,0,0,0,.547,1.044,6.15,6.15,0,0,0,2.52.9,31.523,31.523,0,0,1,7.057,2.148,7.418,7.418,0,0,1,3.1,2.695,6.835,6.835,0,0,1,.97,3.6,7.709,7.709,0,0,1-1.294,4.312A8.1,8.1,0,0,1-472.068,496a14.616,14.616,0,0,1-5.855,1.02q-6.2,0-8.591-2.388A9.419,9.419,0,0,1-489.216,488.564Z" transform="translate(593.004 -471.879)"/><path d="M-437.491,472.7h7.529v24.313h-7.529Z" transform="translate(567.417 -472.285)"/></g></svg>