<svg xmlns="http://www.w3.org/2000/svg" width="45" height="49" viewBox="0 0 45 49"><g transform="translate(-140 -137)"><path d="M30,3H6A3,3,0,0,0,3.015,6L3,33l6-6H30a3.009,3.009,0,0,0,3-3V6A3.009,3.009,0,0,0,30,3ZM27,21H9V18H27Zm0-4.5H9v-3H27ZM27,12H9V9H27Z" transform="translate(137 134)" fill="#929292"/><path d="M6,3H30a3,3,0,0,1,2.985,3L33,33l-6-6H6a3.009,3.009,0,0,1-3-3V6A3.009,3.009,0,0,1,6,3ZM9,21H27V18H9Zm0-4.5H27v-3H9ZM9,12H27V9H9Z" transform="translate(152 153)" fill="#d6d6d6"/></g></svg>