<svg xmlns="http://www.w3.org/2000/svg" width="52" height="52" viewBox="0 0 52 52"><g transform="translate(-206.5 -938.182)"><circle cx="26" cy="26" r="26" transform="translate(206.5 938.182)" fill="#929292"/><path d="M32.622,10.74c.023.323.023.646.023.969,0,9.851-7.5,21.2-21.2,21.2A21.058,21.058,0,0,1,0,29.566a15.416,15.416,0,0,0,1.8.092,14.924,14.924,0,0,0,9.251-3.184,7.465,7.465,0,0,1-6.967-5.168,9.4,9.4,0,0,0,1.407.115,7.881,7.881,0,0,0,1.961-.254,7.453,7.453,0,0,1-5.975-7.313v-.092a7.5,7.5,0,0,0,3.368.946A7.463,7.463,0,0,1,2.538,4.742,21.182,21.182,0,0,0,17.9,12.54a8.412,8.412,0,0,1-.185-1.707,7.459,7.459,0,0,1,12.9-5.1,14.671,14.671,0,0,0,4.73-1.8,7.432,7.432,0,0,1-3.276,4.107A14.939,14.939,0,0,0,36.36,6.888,16.019,16.019,0,0,1,32.622,10.74Z" transform="translate(215.32 946.036)" fill="#fff"/></g></svg>